<svg xmlns="http://www.w3.org/2000/svg" xmlns:xlink="http://www.w3.org/1999/xlink" width="218.46" height="76.855" viewBox="0 0 218.46 76.855">
  <defs>
    <linearGradient id="linear-gradient" x1="1.549" y1="-0.783" x2="0.521" y2="0.564" gradientUnits="objectBoundingBox">
      <stop offset="0.008" stop-color="#569218"/>
      <stop offset="0.509" stop-color="#4a821b"/>
      <stop offset="1" stop-color="#446e1b"/>
    </linearGradient>
    <linearGradient id="linear-gradient-2" x1="1.407" y1="-2.63" x2="0.547" y2="0.181" xlink:href="#linear-gradient"/>
    <linearGradient id="linear-gradient-3" x1="0.981" y1="-0.633" x2="0.075" y2="1.365" xlink:href="#linear-gradient"/>
    <linearGradient id="linear-gradient-4" x1="1.215" y1="-1.884" x2="0.301" y2="0.952" xlink:href="#linear-gradient"/>
    <linearGradient id="linear-gradient-5" x1="0.843" y1="-0.99" x2="-0.087" y2="2.803" xlink:href="#linear-gradient"/>
    <linearGradient id="linear-gradient-6" x1="-0.169" y1="1.654" x2="-1.608" y2="4.063" xlink:href="#linear-gradient"/>
    <linearGradient id="linear-gradient-7" x1="1.92" y1="-2.707" x2="0.923" y2="-0.506" xlink:href="#linear-gradient"/>
    <linearGradient id="linear-gradient-8" x1="2.106" y1="-1.708" x2="0.09" y2="1.16" xlink:href="#linear-gradient"/>
    <linearGradient id="linear-gradient-9" x1="0.562" y1="0.489" x2="-0.651" y2="2.215" xlink:href="#linear-gradient"/>
    <linearGradient id="linear-gradient-10" x1="0.911" y1="-0.039" x2="-0.374" y2="1.593" xlink:href="#linear-gradient"/>
    <linearGradient id="linear-gradient-11" x1="0.019" y1="1.556" x2="-1.599" y2="5.466" xlink:href="#linear-gradient"/>
    <linearGradient id="linear-gradient-12" x1="0.294" y1="0.831" x2="-2.08" y2="3.617" xlink:href="#linear-gradient"/>
    <linearGradient id="linear-gradient-13" x1="0.635" y1="0.214" x2="-0.58" y2="2.578" xlink:href="#linear-gradient"/>
    <linearGradient id="linear-gradient-14" x1="0.332" y1="0.809" x2="-0.67" y2="3.437" xlink:href="#linear-gradient"/>
    <linearGradient id="linear-gradient-15" x1="0.587" y1="0.083" x2="-1.047" y2="4.917" xlink:href="#linear-gradient"/>
    <linearGradient id="linear-gradient-16" x1="2.391" y1="-5.738" x2="1.532" y2="-2.927" xlink:href="#linear-gradient"/>
    <linearGradient id="linear-gradient-17" x1="1.706" y1="-2.215" x2="0.8" y2="-0.217" xlink:href="#linear-gradient"/>
    <linearGradient id="linear-gradient-18" x1="2.147" y1="-4.66" x2="1.232" y2="-1.824" xlink:href="#linear-gradient"/>
    <linearGradient id="linear-gradient-19" x1="2.239" y1="-6.647" x2="1.309" y2="-2.854" xlink:href="#linear-gradient"/>
    <linearGradient id="linear-gradient-20" x1="1.038" y1="-0.482" x2="-0.4" y2="1.927" xlink:href="#linear-gradient"/>
    <linearGradient id="linear-gradient-21" x1="2.453" y1="-3.864" x2="1.456" y2="-1.663" xlink:href="#linear-gradient"/>
    <linearGradient id="linear-gradient-22" x1="2.127" y1="-1.881" x2="0.112" y2="0.987" xlink:href="#linear-gradient"/>
    <linearGradient id="linear-gradient-23" x1="2.013" y1="-3.202" x2="0.394" y2="0.707" xlink:href="#linear-gradient"/>
    <linearGradient id="linear-gradient-24" x1="0.089" y1="1.062" x2="-1.5" y2="2.921" xlink:href="#linear-gradient"/>
    <linearGradient id="linear-gradient-25" x1="1.443" y1="-1.401" x2="0.228" y2="0.963" xlink:href="#linear-gradient"/>
    <linearGradient id="linear-gradient-26" x1="2.175" y1="-2.825" x2="1.009" y2="-0.557" xlink:href="#linear-gradient"/>
    <linearGradient id="linear-gradient-27" x1="0.941" y1="-0.066" x2="-0.536" y2="1.796" xlink:href="#linear-gradient"/>
    <linearGradient id="linear-gradient-28" x1="2.695" y1="-6.044" x2="1.062" y2="-1.211" xlink:href="#linear-gradient"/>
    <linearGradient id="linear-gradient-29" x1="0.926" y1="0.005" x2="0.198" y2="0.997" xlink:href="#linear-gradient"/>
    <linearGradient id="linear-gradient-30" x1="0.345" y1="0.784" x2="-1.536" y2="4.89" xlink:href="#linear-gradient"/>
  </defs>
  <g id="Group_3817" data-name="Group 3817" transform="translate(-65.276 -96.289)">
    <path id="Path_1" data-name="Path 1" d="M82.316,183.709H77.382L76.2,180.06H71.342l-1.131,3.649H65.276l6.349-18.2h4.189Zm-7.222-7.735-1.259-5.32h-.128l-1.337,5.32Z" transform="translate(0 -10.874)" fill="#4a821b"/>
    <path id="Path_2" data-name="Path 2" d="M97.312,170.862c-1-2.442-5.063-1.877-5.063.514v6.245c0,2.852,5.32,2.827,5.32,0v-.668h-2.9V173.1h7.325v4.523c0,4.19-3.495,6.3-7.145,6.3-3.6,0-7.2-2.106-7.2-6.3v-6.245c0-4.112,3.6-6.168,7.2-6.168a6.564,6.564,0,0,1,6.323,3.881Z" transform="translate(-3.514 -10.826)" fill="#4a821b"/>
    <path id="Path_3" data-name="Path 3" d="M114.031,177.927h-.823v5.782h-4.652v-18.2h7.274c3.753,0,6.656,1.722,6.759,5.988,0,3.367-1.362,5.269-3.572,5.963l4.961,6.245h-5.732Zm1.875-3.958a2.084,2.084,0,1,0,0-4.164h-2.7v4.164Z" transform="translate(-6.799 -10.874)" fill="#4a821b"/>
    <path id="Path_4" data-name="Path 4" d="M129.1,171.453c0-4.188,3.753-6.245,7.531-6.245s7.557,2.082,7.557,6.245v6.22c0,4.164-3.753,6.245-7.531,6.245s-7.557-2.081-7.557-6.245Zm4.6,6.22c0,1.336,1.491,1.979,2.956,1.979s2.929-.668,2.929-1.979v-6.22c0-1.413-1.516-2.056-3.007-2.056-1.439,0-2.879.72-2.879,2.056Z" transform="translate(-10.025 -10.826)" fill="#4a821b"/>
    <path id="Path_5" data-name="Path 5" d="M161.356,165.513h4.37l4.395,7.761,1.542,3.651.129-.026c-.026,0-.489-3.136-.514-3.136v-8.25h4.574v18.2H171.2l-4.113-7.171-1.593-3.649-.129.025.592,3.521v7.274h-4.6Z" transform="translate(-15.093 -10.874)" fill="#4a821b"/>
    <path id="Path_6" data-name="Path 6" d="M185.275,177.9c1.825,2.21,5.835,2.312,5.964.36.051-1.028-1.62-1.62-3.11-1.825-2.93-.464-5.6-2.314-5.6-5.783,0-3.572,3.238-5.449,6.58-5.449a7.476,7.476,0,0,1,6.219,2.9l-3.007,2.313c-1.9-2.03-5.165-1.952-5.243.155.051.873,1,1.387,2.416,1.7,3.238.592,6.477,1.722,6.271,6.195-.154,3.522-3.855,5.449-7.2,5.449a7.974,7.974,0,0,1-6.194-3.289Z" transform="translate(-18.394 -10.826)" fill="#4a821b"/>
    <path id="Path_7" data-name="Path 7" d="M206.656,177.619c0,2.928,5.192,2.928,5.218,0V165.513h4.652v12.106c-.025,8.532-14.547,8.532-14.521,0V165.513h4.651Z" transform="translate(-21.478 -10.874)" fill="#4a821b"/>
    <path id="Path_8" data-name="Path 8" d="M229.238,177.927h-.822v5.782h-4.653v-18.2h7.273c3.753,0,6.657,1.722,6.759,5.988,0,3.367-1.361,5.269-3.571,5.963l4.961,6.245h-5.732Zm1.876-3.958a2.084,2.084,0,1,0,0-4.164h-2.7v4.164Z" transform="translate(-24.896 -10.874)" fill="#4a821b"/>
    <path id="Path_9" data-name="Path 9" d="M261.519,183.709h-4.934L255.4,180.06h-4.858l-1.131,3.649h-4.934l6.348-18.2h4.19Zm-7.222-7.735-1.259-5.32h-.129l-1.336,5.32Z" transform="translate(-28.15 -10.874)" fill="#4a821b"/>
    <path id="Path_10" data-name="Path 10" d="M268.049,165.513h4.369l4.395,7.761,1.542,3.651.129-.026c-.025,0-.488-3.136-.514-3.136v-8.25h4.575v18.2h-4.652l-4.112-7.171-1.594-3.649-.128.025.591,3.521v7.274h-4.6Z" transform="translate(-31.853 -10.874)" fill="#4a821b"/>
    <path id="Path_11" data-name="Path 11" d="M303.236,179.833a7.321,7.321,0,0,1-6.554,4.086c-3.573,0-7.171-2.081-7.171-6.22v-6.27c0-4.113,3.6-6.22,7.247-6.22a6.752,6.752,0,0,1,6.4,4.189l-3.754,1.516c-1.233-2.262-5.294-1.747-5.294.514v6.27c0,2.185,4.113,2.8,5.115.282Z" transform="translate(-35.224 -10.826)" fill="#4a821b"/>
    <path id="Path_12" data-name="Path 12" d="M314.068,172.658h7.377v3.984h-7.377v3.347h8.019v4.029h-12.67v-18.5h12.67v4.318h-8.019Z" transform="translate(-38.351 -10.874)" fill="#4a821b"/>
    <path id="Path_13" data-name="Path 13" d="M161.539,145.76a34.871,34.871,0,0,0-3.143,2.445,28.615,28.615,0,0,0-2.857,2.836,25.358,25.358,0,0,0-2.481,3.235c-.464.712-.9,1.452-1.3,2.214a.157.157,0,0,1-.292-.028q-.269-.934-.572-1.859a59.332,59.332,0,0,0-3.082-7.9,35.26,35.26,0,0,0-2.041-3.764,25.478,25.478,0,0,0-2.562-3.484,15.444,15.444,0,0,0-5.347-3.974,9.2,9.2,0,0,0-2.109-.49,4.969,4.969,0,0,1,2.507,1.614,20.938,20.938,0,0,1,3.437,3.99,38.849,38.849,0,0,1,3.3,7.277c.868,2.546,1.645,5.137,2.31,7.762l.951,3.952.007.027a23.589,23.589,0,0,1,.575,5.277v13.864a.16.16,0,0,0,.161.161h4.278a.161.161,0,0,0,.162-.161V164.486a18.466,18.466,0,0,1,1.346-7.1q.35-.845.771-1.666a34.294,34.294,0,0,1,1.864-3.237c.685-1.053,1.452-2.06,2.236-3.067s1.656-1.949,2.519-2.917c.893-.935,1.8-1.875,2.738-2.793A39.1,39.1,0,0,0,161.539,145.76Z" transform="translate(-11.071 -6.079)" fill="#a24d1d"/>
    <g id="Group_1" data-name="Group 1" transform="translate(95.07 96.289)">
      <path id="Path_14" data-name="Path 14" d="M149.284,136.244c1.386-3.9,6.614-7.231,6.614-7.231s1.962,5.882.577,9.785-5.6,4.353-5.6,4.353-2.981-3-1.595-6.906Z" transform="translate(-108.208 -101.429)" fill-rule="evenodd" fill="url(#linear-gradient)"/>
      <path id="Path_15" data-name="Path 15" d="M185.02,153.428c2.654-1.628,7.285-1.1,7.285-1.1s-1.632,4.367-4.286,5.995a5.287,5.287,0,0,1-5.33-.1,5.282,5.282,0,0,1,2.331-4.793Z" transform="translate(-113.512 -105.079)" fill-rule="evenodd" fill="url(#linear-gradient-2)"/>
      <path id="Path_16" data-name="Path 16" d="M174.6,135.1c2.43-2.566,7.66-3.355,7.66-3.355s-.5,5.267-2.933,7.832a6,6,0,0,1-5.87,1.462A6,6,0,0,1,174.6,135.1Z" transform="translate(-112.01 -101.859)" fill-rule="evenodd" fill="url(#linear-gradient-3)"/>
      <path id="Path_17" data-name="Path 17" d="M181.2,144.6c2.492-1.663,6.962-1.33,6.962-1.33s-1.407,4.258-3.9,5.921a5.082,5.082,0,0,1-5.126.1A5.079,5.079,0,0,1,181.2,144.6Z" transform="translate(-112.951 -103.665)" fill-rule="evenodd" fill="url(#linear-gradient-4)"/>
      <path id="Path_18" data-name="Path 18" d="M195.631,138.591c2.458-.832,6.124.449,6.124.449s-2.133,3.246-4.591,4.079a4.4,4.4,0,0,1-4.311-1.065,4.4,4.4,0,0,1,2.778-3.463Z" transform="translate(-115.11 -102.89)" fill-rule="evenodd" fill="url(#linear-gradient-5)"/>
      <path id="Path_19" data-name="Path 19" d="M176.271,108.493c1.412-2.177,5.082-3.444,5.082-3.444s.341,3.869-1.071,6.046a4.4,4.4,0,0,1-4.043,1.838,4.4,4.4,0,0,1,.033-4.44Z" transform="translate(-112.405 -97.665)" fill-rule="evenodd" fill="url(#linear-gradient-6)"/>
      <path id="Path_20" data-name="Path 20" d="M166.744,155.661c2.207-2.33,6.955-3.046,6.955-3.046s-.456,4.782-2.663,7.112a5.447,5.447,0,0,1-5.33,1.326,5.441,5.441,0,0,1,1.038-5.391Z" transform="translate(-110.797 -105.137)" fill-rule="evenodd" fill="url(#linear-gradient-7)"/>
      <path id="Path_21" data-name="Path 21" d="M163.253,136.664c.861-1.832,3.563-3.2,3.563-3.2s.674,2.955-.186,4.788a3.436,3.436,0,0,1-2.93,1.851,3.434,3.434,0,0,1-.447-3.436Z" transform="translate(-110.414 -102.128)" fill-rule="evenodd" fill="url(#linear-gradient-8)"/>
      <path id="Path_22" data-name="Path 22" d="M161.962,115.8c1.43-3.045,5.921-5.321,5.921-5.321s1.12,4.91-.309,7.955a5.709,5.709,0,0,1-4.869,3.075,5.7,5.7,0,0,1-.743-5.709Z" transform="translate(-110.181 -98.519)" fill-rule="evenodd" fill="url(#linear-gradient-9)"/>
      <path id="Path_23" data-name="Path 23" d="M147.6,120.228c-.972-3.221.847-7.916.847-7.916s4.115,2.9,5.087,6.125a5.71,5.71,0,0,1-1.566,5.541,5.7,5.7,0,0,1-4.368-3.75Z" transform="translate(-107.957 -98.806)" fill-rule="evenodd" fill="url(#linear-gradient-10)"/>
      <path id="Path_24" data-name="Path 24" d="M186.275,117.891c1.378-1.292,4.2-1.548,4.2-1.548s-.435,2.8-1.814,4.088a3.207,3.207,0,0,1-3.179.593,3.2,3.2,0,0,1,.8-3.134Z" transform="translate(-113.932 -99.439)" fill-rule="evenodd" fill="url(#linear-gradient-11)"/>
      <path id="Path_25" data-name="Path 25" d="M156.275,110.443c.107-1.886,1.972-4.014,1.972-4.014s1.613,2.325,1.505,4.211a3.207,3.207,0,0,1-1.894,2.623,3.206,3.206,0,0,1-1.583-2.82Z" transform="translate(-109.363 -97.882)" fill-rule="evenodd" fill="url(#linear-gradient-12)"/>
      <path id="Path_26" data-name="Path 26" d="M171.967,122.4c1.763-2.2,5.869-3.171,5.869-3.171s-.053,4.22-1.816,6.42a4.783,4.783,0,0,1-4.57,1.548,4.78,4.78,0,0,1,.518-4.8Z" transform="translate(-111.681 -99.893)" fill-rule="evenodd" fill="url(#linear-gradient-13)"/>
      <path id="Path_27" data-name="Path 27" d="M197.9,126.545c2.249-1.892,6.644-2.052,6.644-2.052s-.91,4.3-3.159,6.195a4.986,4.986,0,0,1-4.987.655,4.981,4.981,0,0,1,1.5-4.8Z" transform="translate(-115.648 -100.719)" fill-rule="evenodd" fill="url(#linear-gradient-14)"/>
      <path id="Path_28" data-name="Path 28" d="M187.958,127.962a7.655,7.655,0,0,1,3.95-.887,7.648,7.648,0,0,1-2.117,3.451,2.906,2.906,0,0,1-2.925.153,2.9,2.9,0,0,1,1.092-2.717Z" transform="translate(-114.165 -101.125)" fill-rule="evenodd" fill="url(#linear-gradient-15)"/>
      <path id="Path_29" data-name="Path 29" d="M121.275,153.428a5.28,5.28,0,0,1,2.33,4.793,5.285,5.285,0,0,1-5.329.1c-2.655-1.628-4.286-5.995-4.286-5.995s4.631-.524,7.285,1.1Z" transform="translate(-102.722 -105.079)" fill-rule="evenodd" fill="url(#linear-gradient-16)"/>
      <path id="Path_30" data-name="Path 30" d="M131.785,135.1a6,6,0,0,1,1.143,5.939,6,6,0,0,1-5.871-1.462c-2.43-2.566-2.932-7.832-2.932-7.832s5.229.789,7.66,3.355Z" transform="translate(-104.314 -101.859)" fill-rule="evenodd" fill="url(#linear-gradient-17)"/>
      <path id="Path_31" data-name="Path 31" d="M125.206,144.6a5.079,5.079,0,0,1,2.063,4.693,5.082,5.082,0,0,1-5.126-.1c-2.492-1.663-3.9-5.921-3.9-5.921s4.47-.333,6.962,1.33Z" transform="translate(-103.39 -103.665)" fill-rule="evenodd" fill="url(#linear-gradient-18)"/>
      <path id="Path_32" data-name="Path 32" d="M106.745,138.591a4.4,4.4,0,0,1,2.779,3.463,4.4,4.4,0,0,1-4.312,1.065c-2.457-.833-4.59-4.079-4.59-4.079s3.665-1.281,6.123-.449Z" transform="translate(-100.622 -102.89)" fill-rule="evenodd" fill="url(#linear-gradient-19)"/>
      <path id="Path_33" data-name="Path 33" d="M127.455,108.927a4.4,4.4,0,0,1,.032,4.44,4.4,4.4,0,0,1-4.043-1.838c-1.413-2.177-1.072-6.046-1.072-6.046s3.67,1.268,5.083,3.444Z" transform="translate(-104.033 -97.733)" fill-rule="evenodd" fill="url(#linear-gradient-20)"/>
      <path id="Path_34" data-name="Path 34" d="M139.8,155.661a5.439,5.439,0,0,1,1.038,5.391,5.445,5.445,0,0,1-5.329-1.326c-2.207-2.33-2.663-7.112-2.663-7.112s4.748.716,6.954,3.046Z" transform="translate(-105.684 -105.137)" fill-rule="evenodd" fill="url(#linear-gradient-21)"/>
      <path id="Path_35" data-name="Path 35" d="M146.507,129.259a3.432,3.432,0,0,1-.447,3.436,3.436,3.436,0,0,1-2.93-1.85c-.86-1.833-.186-4.789-.186-4.789s2.7,1.371,3.563,3.2Z" transform="translate(-107.231 -100.965)" fill-rule="evenodd" fill="url(#linear-gradient-22)"/>
      <path id="Path_36" data-name="Path 36" d="M120.862,120.78a3.206,3.206,0,0,1,.8,3.135,3.206,3.206,0,0,1-3.18-.594c-1.379-1.293-1.814-4.088-1.814-4.088s2.816.255,4.2,1.548Z" transform="translate(-103.142 -99.893)" fill-rule="evenodd" fill="url(#linear-gradient-23)"/>
      <path id="Path_37" data-name="Path 37" d="M153.014,102.447a4.8,4.8,0,0,1-2.594,4.085,4.8,4.8,0,0,1-2.616-4.073c-.006-2.827,2.592-6.169,2.592-6.169s2.611,3.33,2.618,6.158Z" transform="translate(-108.034 -96.289)" fill-rule="evenodd" fill="url(#linear-gradient-24)"/>
      <path id="Path_38" data-name="Path 38" d="M134.852,122.4a4.779,4.779,0,0,1,.518,4.8,4.784,4.784,0,0,1-4.571-1.548c-1.763-2.2-1.816-6.42-1.816-6.42s4.106.971,5.868,3.171Z" transform="translate(-105.077 -99.893)" fill-rule="evenodd" fill="url(#linear-gradient-25)"/>
      <path id="Path_39" data-name="Path 39" d="M107.806,128.318a4.981,4.981,0,0,1,.539,5,4.987,4.987,0,0,1-4.763-1.613c-1.838-2.293-1.893-6.691-1.893-6.691s4.279,1.012,6.117,3.305Z" transform="translate(-100.79 -100.801)" fill-rule="evenodd" fill="url(#linear-gradient-26)"/>
      <path id="Path_40" data-name="Path 40" d="M144.074,113.9a4.983,4.983,0,0,1-1.43,4.821,4.986,4.986,0,0,1-3.774-3.325c-.812-2.824.834-6.9.834-6.9s3.558,2.584,4.37,5.408Z" transform="translate(-106.595 -98.206)" fill-rule="evenodd" fill="url(#linear-gradient-27)"/>
      <path id="Path_41" data-name="Path 41" d="M117.61,130.3a2.9,2.9,0,0,1,1.092,2.717,2.9,2.9,0,0,1-2.925-.153,7.648,7.648,0,0,1-2.117-3.451,7.655,7.655,0,0,1,3.95.887Z" transform="translate(-102.67 -101.492)" fill-rule="evenodd" fill="url(#linear-gradient-28)"/>
      <path id="Path_42" data-name="Path 42" d="M166.552,104.074a2.9,2.9,0,0,1-2.4,1.679,2.905,2.905,0,0,1-.514-2.883,7.647,7.647,0,0,1,2.881-2.844,7.652,7.652,0,0,1,.032,4.048Z" transform="translate(-110.49 -96.876)" fill-rule="evenodd" fill="url(#linear-gradient-29)"/>
      <path id="Path_43" data-name="Path 43" d="M138.854,101.574a2.9,2.9,0,0,1,.533,2.879,2.9,2.9,0,0,1-2.836-.727,7.645,7.645,0,0,1-1.392-3.8,7.652,7.652,0,0,1,3.7,1.651Z" transform="translate(-106.047 -96.86)" fill-rule="evenodd" fill="url(#linear-gradient-30)"/>
    </g>
  </g>
</svg>
